<svg width="45" height="45" viewBox="0 0 45 45" fill="none" xmlns="http://www.w3.org/2000/svg">
<path d="M44.9746 22.5C44.9746 10.0735 34.9068 0 22.4873 0C10.0678 0 0 10.0735 0 22.5C0 33.7309 8.22458 43.0413 18.9788 44.7329V29.0122H13.2712V22.5127H18.9788V17.5523C18.9788 11.9177 22.3347 8.80158 27.4703 8.80158C29.9364 8.80158 32.5042 9.24675 32.5042 9.24675V14.7795H29.6695C26.8729 14.7795 26.0085 16.5093 26.0085 18.29V22.5127H32.25L31.2585 29.0122H26.0212V44.7329C36.7754 43.0413 45 33.7309 45 22.5H44.9746Z" fill="#337FFF"/>
<path d="M31.2461 28.9996L32.2376 22.5002H25.9961V18.2775C25.9961 16.4968 26.8732 14.767 29.6571 14.767H32.4918V9.23423C32.4918 9.23423 29.924 8.78906 27.4579 8.78906C22.3223 8.78906 18.9664 11.9052 18.9664 17.5398V22.5002H13.2588V28.9996H18.9664V44.7204C20.1105 44.8984 21.28 45.0002 22.4749 45.0002C23.6698 45.0002 24.8393 44.9112 25.9834 44.7204V28.9996H31.2207H31.2461Z" fill="white"/>
</svg>
