<svg width="45" height="45" viewBox="0 0 45 45" fill="none" xmlns="http://www.w3.org/2000/svg">
<path d="M22.5 45C34.9264 45 45 34.9264 45 22.5C45 10.0736 34.9264 0 22.5 0C10.0736 0 0 10.0736 0 22.5C0 34.9264 10.0736 45 22.5 45Z" fill="url(#paint0_linear_38_216)"/>
<path d="M29.4829 13.9912C28.6307 13.9912 27.9312 14.678 27.9312 15.5429C27.9312 16.4078 28.618 17.0947 29.4829 17.0947C30.3478 17.0947 31.0346 16.4078 31.0346 15.5429C31.0346 14.678 30.3478 13.9912 29.4829 13.9912Z" fill="white"/>
<path d="M22.6147 15.9751C19.0279 15.9751 16.1152 18.8878 16.1152 22.4745C16.1152 26.0613 19.0279 28.974 22.6147 28.974C26.2014 28.974 29.1141 26.0613 29.1141 22.4745C29.1141 18.8878 26.2014 15.9751 22.6147 15.9751ZM22.6147 26.6337C20.3252 26.6337 18.4555 24.764 18.4555 22.4745C18.4555 20.1851 20.3252 18.3154 22.6147 18.3154C24.9041 18.3154 26.7738 20.1851 26.7738 22.4745C26.7738 24.764 24.9041 26.6337 22.6147 26.6337Z" fill="white"/>
<path d="M27.7659 35.6645H17.2345C12.8592 35.6645 9.31055 32.1031 9.31055 27.7405V17.2091C9.31055 12.8338 12.8592 9.28516 17.2345 9.28516H27.7659C32.1412 9.28516 35.6899 12.8338 35.6899 17.2091V27.7405C35.6899 32.1159 32.1285 35.6645 27.7659 35.6645ZM17.2345 11.7654C14.2328 11.7654 11.7908 14.2074 11.7908 17.2091V27.7405C11.7908 30.7422 14.2328 33.1843 17.2345 33.1843H27.7659C30.7676 33.1843 33.2096 30.7422 33.2096 27.7405V17.2091C33.2096 14.2074 30.7676 11.7654 27.7659 11.7654H17.2345Z" fill="white"/>
<defs>
<linearGradient id="paint0_linear_38_216" x1="1.42453" y1="4.70605" x2="46.4118" y2="42.6978" gradientUnits="userSpaceOnUse">
<stop stop-color="#FBE18A"/>
<stop offset="0.21" stop-color="#FCBB45"/>
<stop offset="0.38" stop-color="#F75274"/>
<stop offset="0.52" stop-color="#D53692"/>
<stop offset="0.74" stop-color="#8F39CE"/>
<stop offset="1" stop-color="#5B4FE9"/>
</linearGradient>
</defs>
</svg>
