<svg width="255" height="99" viewBox="0 0 255 99" fill="none" xmlns="http://www.w3.org/2000/svg">
<path d="M254.418 11.2514L248.13 19.8797L241.191 18.2416C236.942 17.63 238.77 13.3267 240.216 11.2514C238.828 9.50382 244.263 3.02362 247.154 0.00196552C248.564 -0.107253 248.13 4.3707 248.13 4.58913C248.13 4.76388 251.455 5.53569 253.117 5.89975C255.719 6.94825 255.069 9.90442 254.418 11.2514Z" fill="#EB4851"/>
<path d="M63.3206 27.4836C55.4434 28.5066 49.0021 31.8853 43.0686 37.8699C38.6697 42.2688 36.3679 45.7982 34.4754 51.2201C33.2478 54.5449 33.0943 55.7214 33.0943 62.3709C33.0432 70.6573 33.4524 72.8567 36.2145 78.4321C40.818 87.7926 49.2067 94.5956 59.2321 97.2043C64.0914 98.4319 71.3548 98.4831 76.4187 97.3578C89.1039 94.4933 99.6409 83.9564 102.659 71.1688C103.733 66.7187 103.682 58.0231 102.608 53.9311C99.5898 42.4223 90.2804 32.5503 79.0785 28.9697C76.8279 28.2025 71.297 27.1283 67.3139 27.1283C66.7565 27.1283 65.4067 27.2127 63.3206 27.4836ZM75.4979 29.2255C80.2549 30.2485 84.4493 32.6014 88.2855 36.4888C92.4799 40.7343 95.1908 45.1844 97.0834 50.8621C98.3621 54.5961 98.4644 55.6702 98.4644 62.8824C98.4644 70.2481 98.4133 71.1176 97.0834 74.9028C92.9914 86.565 84.7562 94.5956 74.7818 96.6928C70.3829 97.6135 61.3293 97.0509 57.6976 95.6186C48.8998 92.2939 42.1991 84.4167 38.8232 73.624C37.8513 70.4015 37.6467 68.7136 37.6467 62.8824C37.6978 55.8748 38.0559 53.7265 40.0508 48.5603C46.1377 33.0618 59.4879 25.7984 75.4979 29.2255Z" fill="black"/>
<path d="M225.215 28.4581C224.396 29.1742 222.708 35.6703 216.826 60.6828C212.836 77.9205 209.409 92.038 209.256 92.038C209.102 92.038 205.982 79.5573 202.351 64.2634C193.757 27.8955 194.166 29.5834 193.092 28.765C192.581 28.407 191.046 28.1001 189.665 28.1001C187.466 28.1001 187.21 28.2024 187.568 28.9696C187.824 29.4811 188.08 45.1331 188.182 63.7519C188.284 85.2862 188.489 97.6646 188.796 97.6646C189.103 97.6646 189.307 85.3373 189.307 63.5473C189.307 44.8262 189.409 29.5834 189.512 29.6857C189.614 29.788 193.195 44.6216 197.44 62.6266C201.686 80.6315 205.368 95.8743 205.675 96.4881C206.238 97.818 208.284 98.0738 209.205 96.9484C209.512 96.5904 213.246 81.3476 217.491 63.0869C221.736 44.8262 225.317 29.788 225.419 29.6857C225.573 29.5323 225.573 44.7751 225.522 63.5473L225.368 97.6646H228.284H231.25L230.739 96.3346C230.432 95.5674 230.227 82.2683 230.227 62.1151L229.843 29.447L229.102 28.407C227.757 27.1154 226.493 27.384 225.215 28.4581Z" fill="black"/>
<path d="M229.721 29.4823C229.72 29.469 229.731 29.3881 229.729 29.3743M229.729 29.3743C229.628 28.6841 228.338 27.0498 227.132 27.8969C226.972 28.0093 228.086 29.0126 229.729 29.3743Z" stroke="black"/>
<path d="M0.562654 28.6116C0.562654 28.9185 4.80813 29.1231 12.3272 29.1231C18.8233 29.1231 24.0918 29.3277 24.0918 29.5323C24.0918 29.788 18.8233 44.7239 12.3784 62.6777C5.98459 80.6315 0.562654 95.8743 0.358052 96.4881L0 97.6646H12.4807C24.5522 97.6646 28.1838 97.3065 28.1838 96.0277C28.1838 95.7208 27.7235 95.6697 27.0585 95.9254C25.1148 96.5904 5.16619 96.795 5.16619 96.0789C5.16619 95.6697 27.3143 33.2151 28.9511 28.9696C29.3091 28.1512 28.4396 28.1001 14.9359 28.1001C5.67769 28.1001 0.562654 28.3047 0.562654 28.6116Z" fill="black"/>
<path d="M111.559 29.6861C111.866 30.7091 112.07 44.8266 112.07 64.5195V97.6649H114.117H116.163V83.0871V68.5092H117.85C122.761 68.5092 125.523 70.6575 132.121 79.4554C140.868 91.1177 147.16 95.9258 156.367 97.9718C161.84 99.1483 169.308 98.7391 174.167 97C177.594 95.7212 179.026 94.8516 178.515 94.3913C178.361 94.2378 176.878 94.647 175.241 95.3631C163.221 100.171 153.4 97.1534 142.71 85.3377C133.707 75.3634 129.359 71.169 126.495 69.6345C124.091 68.3558 123.784 67.9977 124.602 67.742C125.165 67.5885 126.904 66.8213 128.439 66.0028C134.372 62.985 137.646 56.6423 137.646 48.0491C137.646 39.1489 134.525 33.2155 128.132 30.0953C124.858 28.4585 124.347 28.3562 117.902 28.2027L111.099 27.9981L111.559 29.6861ZM125.728 30.8626C130.024 33.2155 132.326 37.9213 132.889 45.7985C133.809 58.3814 128.49 66.9236 119.538 67.1282L116.418 67.2305L116.265 48.1002L116.163 28.97L119.641 29.2257C122.147 29.4304 123.886 29.8907 125.728 30.8626Z" fill="black"/>
<path d="M148.899 50.2489C148.899 68.7142 149.052 72.8574 149.666 75.0569C151.252 80.2742 155.395 83.2409 161.942 83.7013C168.541 84.2128 173.042 82.4926 175.753 77.4288C176.878 75.3827 177.291 74.4431 177.445 51.5277C177.547 36.0803 176.929 28.1008 176.571 28.1008C176.213 28.1008 176.674 36.2337 176.571 51.5277C176.571 51.5277 175.334 72.8093 175.236 74.4834C175.113 76.5695 174.254 77.6741 174.254 77.6741C172.045 81.6972 162.045 84.622 157.134 80.1207C156.469 79.5069 155.395 77.819 154.73 76.4379C154.73 76.4379 153.761 74.9744 153.502 73.8804C152.253 68.5951 153.502 50.965 153.502 50.965V28.1008H151.201H148.899V50.2489Z" fill="black"/>
<path d="M241.992 29.43C242.299 30.1973 242.503 43.2406 242.503 62.8823C242.503 82.524 242.299 95.5674 241.992 96.3346L241.48 97.6646H244.447H247.363V62.8823V28.1001H244.447H241.48L241.992 29.43Z" fill="black"/>
<path d="M228.494 27.8519C228.12 27.6667 227.203 27.4074 226.53 27.8519" stroke="black"/>
</svg>
