<svg width="70" height="70" viewBox="0 0 70 70" fill="none" xmlns="http://www.w3.org/2000/svg">
<g clip-path="url(#clip0_38_265)">
<path d="M65.1539 39.8458C67.8303 23.1923 56.4996 7.52225 39.8461 4.84584C23.1925 2.16942 7.52248 13.5001 4.84607 30.1537C2.16966 46.8072 13.5004 62.4773 30.1539 65.1537C46.8075 67.8301 62.4775 56.4994 65.1539 39.8458Z" fill="#00D95F"/>
<path d="M18.5039 52.2571L21.059 42.7617C19.6088 40.1547 18.8665 37.2371 18.8665 34.2848C18.8665 24.6167 26.7391 16.7441 36.4072 16.7441C46.0753 16.7441 53.9479 24.6167 53.9479 34.2848C53.9479 43.953 46.0753 51.8255 36.4072 51.8255C33.5067 51.8255 30.6408 51.1004 28.0684 49.702L18.5212 52.2571H18.5039ZM28.5346 46.1455L29.1388 46.5081C31.3487 47.8202 33.852 48.5108 36.4072 48.5108C44.2452 48.5108 50.6331 42.1229 50.6331 34.2848C50.6331 26.4468 44.2452 20.0589 36.4072 20.0589C28.5691 20.0589 22.1812 26.4468 22.1812 34.2848C22.1812 36.8745 22.9063 39.4296 24.2702 41.6568L24.6328 42.261L23.2171 47.5612L28.5518 46.1283L28.5346 46.1455Z" fill="white"/>
<path fill-rule="evenodd" clip-rule="evenodd" d="M42.9141 36.7171C42.189 36.2855 41.2567 35.8021 40.3934 36.1474C39.7374 36.4063 39.3231 37.4422 38.9087 37.9601C38.6843 38.2363 38.4253 38.2709 38.0973 38.1328C35.6457 37.1487 33.7639 35.5258 32.4173 33.2642C32.1928 32.9189 32.2274 32.6427 32.5036 32.3146C32.9179 31.8312 33.4186 31.296 33.5395 30.64C33.643 29.9839 33.3495 29.2416 33.0733 28.6546C32.728 27.9122 32.3482 26.8591 31.6058 26.4447C30.9325 26.0649 30.0348 26.2721 29.4305 26.7728C28.3946 27.6187 27.8767 28.9481 27.894 30.2774C27.894 30.6573 27.9458 31.0198 28.0321 31.3823C28.2393 32.2456 28.6536 33.0743 29.1025 33.8339C29.4478 34.4209 29.8103 34.9907 30.2074 35.5259C31.5195 37.3041 33.1424 38.8579 35.0415 40.0146C35.991 40.5843 36.9924 41.1023 38.0455 41.4476C39.2195 41.8446 40.2726 42.2417 41.5502 42C42.8795 41.7411 44.1916 40.9296 44.7268 39.6348C44.8822 39.2549 44.9685 38.8234 44.8822 38.4263C44.7096 37.5976 43.5701 37.0969 42.8968 36.6998L42.9141 36.7171Z" fill="white"/>
</g>
<defs>
<clipPath id="clip0_38_265">
<rect width="70" height="70" fill="white"/>
</clipPath>
</defs>
</svg>
