<svg width="1039" height="403" viewBox="0 0 1039 403" fill="none" xmlns="http://www.w3.org/2000/svg">
<path d="M1036.63 46.3617L1011.01 81.5176L982.738 74.8431C965.421 72.351 972.872 54.8172 978.762 46.3617C973.108 39.241 995.253 12.8373 1007.03 0.525587C1012.78 0.0805757 1011.01 18.326 1011.01 19.216C1011.01 19.9281 1024.56 23.0728 1031.33 24.5562C1041.93 28.8283 1039.28 40.8732 1036.63 46.3617Z" fill="#EB4851"/>
<path d="M258 112.5C225.904 116.668 199.659 130.435 175.483 154.819C157.56 172.743 148.181 187.123 140.47 209.215C135.468 222.762 134.843 227.555 134.843 254.649C134.634 288.412 136.302 297.373 147.556 320.09C166.313 358.23 200.493 385.949 241.342 396.578C261.141 401.58 290.736 401.788 311.368 397.203C363.055 385.532 405.988 342.599 418.284 290.496C422.661 272.364 422.452 236.934 418.076 220.261C405.779 173.368 367.848 133.144 322.206 118.555C313.036 115.429 290.5 111.052 274.271 111.052C272 111.052 266.5 111.396 258 112.5ZM307.617 119.597C326.999 123.766 344.089 133.353 359.72 149.192C376.81 166.49 387.856 184.622 395.567 207.756C400.777 222.97 401.194 227.347 401.194 256.733C401.194 286.744 400.986 290.287 395.567 305.71C378.894 353.228 345.34 385.949 304.699 394.494C286.776 398.245 249.887 395.952 235.089 390.117C199.242 376.57 171.94 344.475 158.185 300.499C154.225 287.369 153.392 280.492 153.392 256.733C153.6 228.18 155.059 219.427 163.187 198.377C187.988 135.228 242.384 105.634 307.617 119.597Z" fill="black"/>
<path d="M917.641 116.471C914.306 119.389 907.428 145.857 883.461 247.771C867.205 318.006 853.241 375.528 852.616 375.528C851.991 375.528 839.278 324.675 824.48 262.36C789.467 114.179 791.134 121.056 786.758 117.722C784.673 116.263 778.421 115.012 772.794 115.012C763.832 115.012 762.79 115.429 764.249 118.555C765.291 120.639 766.333 184.414 766.75 260.276C767.167 348.018 768 398.453 769.251 398.453C770.501 398.453 771.335 348.226 771.335 259.442C771.335 183.163 771.752 121.056 772.169 121.473C772.585 121.89 787.174 182.33 804.473 255.691C821.771 329.052 836.777 391.159 838.027 393.66C840.32 399.079 848.656 400.121 852.407 395.536C853.658 394.077 868.872 331.97 886.17 257.566C903.469 183.163 918.057 121.89 918.474 121.473C919.1 120.848 919.1 182.955 918.891 259.442L918.266 398.453H930.145H942.233L940.149 393.035C938.899 389.908 938.065 335.721 938.065 253.607L936.5 120.5L933.48 116.263C928 111 922.851 112.094 917.641 116.471Z" fill="black"/>
<path d="M936.001 120.643C935.995 120.589 936.04 120.259 936.032 120.203M936.032 120.203C935.622 117.391 930.362 110.732 925.452 114.183C924.8 114.641 929.336 118.729 936.032 120.203Z" stroke="black"/>
<path d="M2.29254 117.096C2.29254 118.347 19.5908 119.181 50.2274 119.181C76.6958 119.181 98.1623 120.014 98.1623 120.848C98.1623 121.89 76.6958 182.746 50.4358 255.899C24.3843 329.052 2.29254 391.159 1.45889 393.66L0 398.453H50.8527C100.038 398.453 114.835 396.994 114.835 391.784C114.835 390.534 112.96 390.325 110.25 391.367C102.331 394.077 21.0497 394.91 21.0497 391.993C21.0497 390.325 111.292 135.854 117.962 118.555C119.42 115.221 115.877 115.012 60.8565 115.012C23.1338 115.012 2.29254 115.846 2.29254 117.096Z" fill="black"/>
<path d="M454.548 121.474C455.798 125.642 456.632 183.164 456.632 263.403V398.454H464.968H473.305V339.057V279.659H480.182C500.19 279.659 511.444 288.412 538.329 324.259C573.968 371.777 599.603 391.368 637.117 399.705C659.417 404.498 689.845 402.831 709.645 395.745C723.608 390.534 729.444 386.991 727.36 385.116C726.734 384.491 720.69 386.158 714.021 389.076C665.044 408.666 625.029 396.37 581.471 348.227C544.79 307.586 527.075 290.496 515.404 284.244C505.609 279.034 504.358 277.575 507.693 276.533C509.985 275.908 517.071 272.781 523.324 269.447C547.5 257.15 560.838 231.307 560.838 196.294C560.838 160.03 548.125 135.854 522.073 123.141C508.735 116.472 506.651 116.055 480.391 115.43L452.672 114.596L454.548 121.474ZM512.278 126.267C529.785 135.854 539.163 155.028 541.456 187.124C545.207 238.393 523.532 273.198 487.06 274.032L474.347 274.449L473.722 196.502L473.305 118.556L487.477 119.598C497.689 120.432 504.775 122.307 512.278 126.267Z" fill="black"/>
<path d="M606.689 205.257C606.689 280.494 607.315 297.375 609.816 306.337C616.276 327.595 633.158 339.683 659.835 341.558C686.72 343.643 705.06 336.634 716.106 316.001C720.691 307.665 722.375 303.836 723 210.467C723.417 147.526 720.9 115.014 719.441 115.014C717.982 115.014 719.857 148.152 719.441 210.467C719.441 210.467 714.401 297.179 714 304C713.5 312.5 710 317.001 710 317.001C701 333.393 660.251 345.31 640.244 326.97C637.535 324.469 633.158 317.591 630.448 311.964C630.448 311.964 626.5 306.001 625.447 301.543C620.357 280.008 625.447 208.174 625.447 208.174V115.014H616.068H606.689V205.257Z" fill="black"/>
<path d="M986 120.431C987.25 123.557 988.084 176.702 988.084 256.733C988.084 336.763 987.25 389.908 986 393.035L983.916 398.453H996.003H1007.88V256.733V115.012H996.003H983.916L986 120.431Z" fill="black"/>
<path d="M931 114C929.476 113.245 925.743 112.189 923 114" stroke="black"/>
</svg>
