<svg width="45" height="45" viewBox="0 0 45 45" fill="none" xmlns="http://www.w3.org/2000/svg">
<path d="M22.5 45C34.9264 45 45 34.9264 45 22.5C45 10.0736 34.9264 0 22.5 0C10.0736 0 0 10.0736 0 22.5C0 34.9264 10.0736 45 22.5 45Z" fill="black"/>
<path fill-rule="evenodd" clip-rule="evenodd" d="M28.4147 18.6204C30.2335 19.9178 32.4721 20.6937 34.8887 20.6937V16.0512C34.4308 16.0512 33.9729 16.0003 33.5278 15.9113V19.5617C31.1111 19.5617 28.8853 18.7985 27.0538 17.4885V26.9641C27.0538 31.7083 23.2126 35.5368 18.4684 35.5368C16.7005 35.5368 15.0597 35.0026 13.686 34.0868C15.2505 35.6767 17.4127 36.6688 19.8166 36.6688C24.5608 36.6688 28.402 32.8276 28.402 28.0961V18.6204H28.4147ZM30.0936 13.9398C29.1651 12.9223 28.5546 11.6122 28.4147 10.1496V9.55176H27.1301C27.448 11.396 28.5546 12.9732 30.0936 13.9398ZM16.7004 30.4492C16.179 29.7623 15.8991 28.9356 15.8991 28.0707C15.8991 25.9085 17.6544 24.1405 19.8293 24.1405C20.2363 24.1405 20.6306 24.2041 21.0249 24.3186V19.5744C20.5798 19.5108 20.1219 19.4853 19.664 19.4981V23.1866C19.2824 23.0594 18.8754 23.0085 18.4684 23.0085C16.3062 23.0085 14.5382 24.7637 14.5382 26.9387C14.5382 28.465 15.4158 29.8005 16.7004 30.4492Z" fill="#EE1D52"/>
<path fill-rule="evenodd" clip-rule="evenodd" d="M27.0534 17.5006C28.8723 18.798 31.1108 19.5739 33.5274 19.5739V15.9235C32.1792 15.631 30.9836 14.9314 30.0933 13.952C28.5543 12.9981 27.4477 11.4209 27.1297 9.56396H23.7465V28.0956C23.7465 30.2578 21.9785 32.0004 19.8163 32.0004C18.5444 32.0004 17.4124 31.3899 16.6874 30.4486C15.4028 29.8 14.5252 28.4772 14.5252 26.9382C14.5252 24.7759 16.2804 23.008 18.4554 23.008C18.8751 23.008 19.2694 23.0716 19.6509 23.1861V19.4975C14.9958 19.5993 11.2437 23.4023 11.2437 28.0702C11.2437 30.4105 12.1721 32.5218 13.6857 34.0736C15.0466 34.9893 16.7001 35.5235 18.4681 35.5235C23.2123 35.5235 27.0534 31.6824 27.0534 26.9509V17.4752V17.5006Z" fill="white"/>
<path fill-rule="evenodd" clip-rule="evenodd" d="M33.5275 15.9114V14.9193C32.3192 14.9193 31.1236 14.5759 30.0934 13.9399C31.0092 14.932 32.2047 15.6316 33.5275 15.9114ZM27.1298 9.56461C27.1044 9.38655 27.079 9.20846 27.0535 9.03039V8.43262H22.3856V26.9643C22.3856 29.1265 20.6177 30.869 18.4555 30.869C17.8195 30.869 17.2217 30.7164 16.6875 30.4493C17.3998 31.3905 18.5318 32.001 19.8164 32.001C21.9786 32.001 23.7339 30.2458 23.7466 28.0963V9.56461H27.1298ZM19.651 19.5236V18.4679C19.2568 18.4171 18.8625 18.3916 18.4682 18.3916C13.724 18.3916 9.88281 22.2328 9.88281 26.9643C9.88281 29.9405 11.3964 32.5479 13.6858 34.0869C12.1722 32.5352 11.2438 30.4238 11.2438 28.0835C11.2438 23.4029 14.9832 19.5999 19.651 19.5109V19.5236Z" fill="#69C9D0"/>
</svg>
